<svg width="67" height="67" viewBox="0 0 67 67" fill="none" xmlns="http://www.w3.org/2000/svg">
<path d="M21.3473 61.614H18.2363V66H16.5703V53.709H21.3473C23.7613 53.709 25.3083 55.29 25.3083 57.653C25.3083 59.948 23.7443 61.614 21.3473 61.614ZM21.0583 55.205H18.2363V60.118H20.9903C22.6393 60.118 23.5573 59.149 23.5573 57.636C23.5573 56.089 22.6223 55.205 21.0583 55.205ZM27.6713 66H26.0053V53.709H30.6463C33.2813 53.709 34.8453 55.103 34.8453 57.398C34.8453 59.098 33.9953 60.322 32.4653 60.815L34.9643 66H33.1113L30.8163 61.138H27.6713V66ZM27.6713 55.205V59.659H30.6633C32.2103 59.659 33.0943 58.826 33.0943 57.415C33.0943 55.987 32.1763 55.205 30.6463 55.205H27.6713ZM43.4354 66H35.9384V53.709H43.4354V55.239H37.6044V59.081H42.8574V60.56H37.6044V64.453H43.4354V66ZM49.4365 61.614H46.3255V66H44.6595V53.709H49.4365C51.8505 53.709 53.3975 55.29 53.3975 57.653C53.3975 59.948 51.8335 61.614 49.4365 61.614ZM49.1475 55.205H46.3255V60.118H49.0795C50.7285 60.118 51.6465 59.149 51.6465 57.636C51.6465 56.089 50.7115 55.205 49.1475 55.205Z" fill="white"/>
<path d="M43.915 0C46.6213 0 49.0514 0.353228 51.2041 1.06055C53.3568 1.73712 55.248 2.66048 56.8779 3.8291C58.5385 4.96694 59.9383 6.28904 61.0762 7.7959C62.2446 9.30262 63.1975 10.8864 63.9355 12.5469C64.7044 14.1768 65.2584 15.8379 65.5967 17.5293C65.9349 19.1899 66.1035 20.7583 66.1035 22.2344V27.6777C66.1035 30.4148 65.7654 32.86 65.0889 35.0127C64.4123 37.1653 63.4898 39.0718 62.3213 40.7324C61.1834 42.3623 59.8614 43.7621 58.3545 44.9307C56.8476 46.0993 55.2632 47.052 53.6025 47.79C51.9727 48.5281 50.3124 49.067 48.6211 49.4053C46.9604 49.7436 45.3912 49.9121 43.915 49.9121H16.791V37.9189H43.915C45.4527 37.7959 46.8373 37.4881 48.0674 36.9961C49.3282 36.4733 50.4041 35.781 51.2959 34.9199C52.1877 34.0588 52.88 33.0285 53.3721 31.8291C53.864 30.5991 54.1104 29.2152 54.1104 27.6777V22.2344C53.9566 20.7276 53.6336 19.3438 53.1416 18.083C52.6496 16.8221 51.9724 15.7454 51.1113 14.8535C50.2811 13.9619 49.2665 13.2703 48.0674 12.7783C46.868 12.2555 45.4834 11.9941 43.915 11.9941H16.8838C15.2846 11.9941 14.0696 12.4089 13.2393 13.2393C12.409 14.0695 11.9942 15.2687 11.9941 16.8369V66.1504H0V16.8369C5.1544e-05 13.7618 0.554071 11.1477 1.66113 8.99512C2.79897 6.84255 4.19781 5.10454 5.8584 3.78223C7.54969 2.45997 9.37963 1.50715 11.3477 0.922852C13.3158 0.307813 15.1304 2.44777e-05 16.791 0H43.915Z" fill="#4A9B8E"/>
<path d="M27.2894 28.9734C21.8387 26.567 23.9896 18.444 27.7735 17.1022C29.3434 16.5455 31.0748 18.3925 31.0643 19.539C31.0593 20.0348 30.8149 20.5185 30.56 21.0221C30.2259 21.6839 29.8737 22.3797 30.0232 23.1849C30.2866 24.6029 30.5816 26.9956 29.8215 28.1311C29.0614 29.267 28.2973 29.4183 27.2894 28.9734ZM38.2263 17.1022C42.0102 18.444 44.1616 26.567 38.7104 28.9734C37.7025 29.4188 36.9384 29.267 36.1783 28.1311C35.4182 26.9956 35.7132 24.6029 35.9766 23.1849C36.1261 22.3797 35.7739 21.6833 35.4397 21.0221C35.1849 20.5185 34.9405 20.0348 34.936 19.539C34.925 18.3925 36.6569 16.5455 38.2263 17.1022ZM35.3519 24.7861L35.3871 25.3098H35.3936L35.3951 25.3092L35.3825 25.3108C35.2713 25.3319 35.1659 25.3782 35.0735 25.4463C34.928 25.555 34.7143 25.7956 34.7143 26.4027V34H33.7108V26.4027C33.7108 25.4752 34.067 24.9075 34.491 24.5908C34.7093 24.429 34.9597 24.3207 35.2235 24.2741C35.2502 24.2698 35.2769 24.2663 35.3038 24.2636L35.3118 24.2625H35.3168C35.3168 24.2625 35.3178 24.262 35.3519 24.7861ZM30.6478 24.7861C30.6137 25.3098 30.6127 25.3098 30.6127 25.3098H30.6067L30.6052 25.3092L30.6172 25.3108C30.7286 25.3319 30.8343 25.3781 30.9268 25.4463C31.0723 25.555 31.286 25.7956 31.286 26.4027V34H32.2895V26.4027C32.2895 25.4752 31.9332 24.9075 31.5088 24.5908C31.2904 24.429 31.0401 24.3207 30.7763 24.2741C30.7496 24.2698 30.7229 24.2663 30.696 24.2636L30.6885 24.2625H30.683C30.683 24.2625 30.6825 24.262 30.6478 24.7861Z" fill="#4A9B8E"/>
</svg>
